# xmcd CD database file
#
# Track frame offsets:
#	150
#	18014
#	36769
#	59293
#	79318
#	113320
#	137432
#	160649
#	185083
#	203368
#	228555
#	247749
#
# Disc length: 3688 seconds
#
# Revision: 0
# Processed by: cddbd v1.5.1PL0 Copyright (c) Steve Scherf et al.
# Submitted via: CDex 1.51
#
DISCID=840e660c
DTITLE=Keiko Lee - Day Dreaming
DYEAR=1999
DGENRE=Jazz
TTITLE0=Waltz For Debby
TTITLE1=Goodbye Pork Pie Hat
TTITLE2=Don't Explain
TTITLE3=Afro Blue
TTITLE4=Day Dream - Prelude To A Kiss
TTITLE5=April In Paris
TTITLE6='Round Midnight
TTITLE7=Human Nature
TTITLE8=Nobody Knows The Trouble I've Seen
TTITLE9=Joy Spring
TTITLE10=A Child Is Born
TTITLE11=What A Wonderful World
EXTD=YEAR: 1999
EXTT0=
EXTT1=
EXTT2=
EXTT3=
EXTT4=
EXTT5=
EXTT6=
EXTT7=
EXTT8=
EXTT9=
EXTT10=
EXTT11=
PLAYORDER=
